<svg width="16" height="16" viewBox="0 0 16 16" fill="none" xmlns="http://www.w3.org/2000/svg">
    <path fill-rule="evenodd" clip-rule="evenodd" d="M12.8342 4.0584C13.0611 4.0584 13.25 4.24682 13.25 4.48657V4.70823C13.25 4.94214 13.0611 5.13639 12.8342 5.13639H3.16641C2.93892 5.13639 2.75 4.94214 2.75 4.70823V4.48657C2.75 4.24682 2.93892 4.0584 3.16641 4.0584H4.86725C5.21275 4.0584 5.51343 3.81282 5.59115 3.46633L5.68022 3.0685C5.81865 2.52658 6.27421 2.16667 6.79557 2.16667H9.20442C9.72012 2.16667 10.1808 2.52658 10.3141 3.03991L10.4094 3.46574C10.4866 3.81282 10.7873 4.0584 11.1333 4.0584H12.8342ZM11.9701 12.1615C12.1476 10.5066 12.4585 6.57499 12.4585 6.53533C12.4699 6.41516 12.4307 6.30141 12.353 6.20983C12.2696 6.12408 12.1641 6.07333 12.0478 6.07333H3.95664C3.83977 6.07333 3.72857 6.12408 3.65142 6.20983C3.57313 6.30141 3.53455 6.41516 3.54022 6.53533C3.54127 6.54262 3.55242 6.68111 3.57107 6.91264C3.65392 7.9412 3.88468 10.8059 4.03379 12.1615C4.13932 13.1602 4.79457 13.7878 5.7437 13.8106C6.47612 13.8275 7.23065 13.8333 8.00221 13.8333C8.72895 13.8333 9.46704 13.8275 10.2221 13.8106C11.2042 13.7937 11.8589 13.1771 11.9701 12.1615Z" fill="black"/>
</svg>